<svg width="16" height="22" viewBox="0 0 16 22" fill="none" xmlns="http://www.w3.org/2000/svg">
<path fill-rule="evenodd" clip-rule="evenodd" d="M10.6786 10.4762V3.66667C10.6786 2.22021 9.47933 1.04762 8 1.04762C6.52067 1.04762 5.32143 2.22021 5.32143 3.66667V10.4762H10.6786ZM8 0C5.92893 0 4.25 1.64162 4.25 3.66667V9.42857V10.4762H2.64286C1.45939 10.4762 0.5 11.4143 0.5 12.5714V16.7619C0.5 19.6548 2.89847 22 5.85714 22H10.1429C13.1015 22 15.5 19.6548 15.5 16.7619V12.5714C15.5 11.4143 14.5406 10.4762 13.3571 10.4762H11.75V9.42857V3.66667C11.75 1.64162 10.0711 0 8 0ZM2.64286 11.5238C2.05112 11.5238 1.57143 11.9928 1.57143 12.5714V16.7619C1.57143 19.0762 3.49021 20.9524 5.85714 20.9524H10.1429C12.5098 20.9524 14.4286 19.0762 14.4286 16.7619V12.5714C14.4286 11.9928 13.9489 11.5238 13.3571 11.5238H2.64286ZM9.07143 15.1905C9.07143 15.5782 8.85596 15.9168 8.53571 16.0979V17.2857H7.46429V16.0979C7.14403 15.9168 6.92857 15.5782 6.92857 15.1905C6.92857 14.6119 7.40827 14.1429 8 14.1429C8.59173 14.1429 9.07143 14.6119 9.07143 15.1905Z" fill="#1E1BFF"/>
</svg>
