<svg width="20" height="22" viewBox="0 0 20 22" fill="none" xmlns="http://www.w3.org/2000/svg">
<path fill-rule="evenodd" clip-rule="evenodd" d="M10 9.65854C12.469 9.65854 14.4706 7.73664 14.4706 5.36585C14.4706 2.99507 12.469 1.07317 10 1.07317C7.53096 1.07317 5.52941 2.99507 5.52941 5.36585C5.52941 7.73664 7.53096 9.65854 10 9.65854ZM13.3535 9.65854C14.7105 8.67956 15.5882 7.12113 15.5882 5.36585C15.5882 2.40237 13.0863 0 10 0C6.9137 0 4.41176 2.40237 4.41176 5.36585C4.41176 7.12113 5.2895 8.67956 6.64652 9.65854C6.6467 9.65867 6.64688 9.6588 6.64706 9.65893C7.58103 10.3325 8.74197 10.7317 10 10.7317H6.64706C6.53259 10.7317 6.41884 10.7347 6.30591 10.7406C3.06966 10.9106 0.5 13.4842 0.5 16.6341V18.7805C0.5 20.5586 2.00116 22 3.85294 22H16.1471C17.9988 22 19.5 20.5586 19.5 18.7805V16.6341C19.5 13.4842 16.9303 10.9106 13.6941 10.7406C13.5812 10.7347 13.4674 10.7317 13.3529 10.7317H10C11.258 10.7317 12.419 10.3325 13.3529 9.65893C13.3531 9.6588 13.3533 9.65867 13.3535 9.65854ZM13.3529 11.8049H6.64706C3.86939 11.8049 1.61765 13.967 1.61765 16.6341V18.7805C1.61765 19.9659 2.61842 20.9268 3.85294 20.9268H16.1471C17.3816 20.9268 18.3824 19.9659 18.3824 18.7805V16.6341C18.3824 13.967 16.1306 11.8049 13.3529 11.8049Z" fill="white"/>
</svg>
